<?xml version="1.0" encoding="utf-8"?>
<!-- Generator: Adobe Illustrator 15.1.0, SVG Export Plug-In . SVG Version: 6.00 Build 0)  -->
<!DOCTYPE svg PUBLIC "-//W3C//DTD SVG 1.1//EN" "http://www.w3.org/Graphics/SVG/1.1/DTD/svg11.dtd">
<svg version="1.1" id="Layer_1" xmlns="http://www.w3.org/2000/svg" xmlns:xlink="http://www.w3.org/1999/xlink" x="0px" y="0px"
	 width="494px" height="312.908px" viewBox="0 0 494 312.908" enable-background="new 0 0 494 312.908" xml:space="preserve">
<g>
	<path fill="none" stroke="#FFFFFF" stroke-width="7" stroke-miterlimit="10" d="M490.5,297.408c0,6.627-5.373,12-12,12h-463
		c-6.627,0-12-5.373-12-12v-234c0-6.627,5.373-12,12-12h463c6.627,0,12,5.373,12,12V297.408z"/>
</g>
<ellipse fill="none" stroke="#FFFFFF" stroke-width="10" stroke-miterlimit="10" cx="151.98" cy="87.129" rx="14.646" ry="14.142"/>
<ellipse fill="none" stroke="#FFFFFF" stroke-width="10" stroke-miterlimit="10" cx="309.192" cy="87.777" rx="16.162" ry="15.656"/>
<g>
	<g>
		<path fill="#FFFFFF" d="M161.863,67.163c16.341-27.662,35.781-63.957,72.759-63.162c35.487,0.763,65.868,35.661,67.635,69.791
			c0.095,1.815,9.803,0.165,9.66-2.588C309.884,31.945,273.512-1.84,234.16,0.078c-18.177,0.886-35.051,8.699-48.177,21.118
			c-14.144,13.382-23.853,31.042-33.656,47.636c-0.923,1.563,3.501,1.077,3.886,1.01C157.992,69.53,160.852,68.875,161.863,67.163
			L161.863,67.163z"/>
	</g>
</g>
<g>
	<path fill="#FFFFFF" d="M72.792,256.751c-5.307-0.437-10.848-1.058-16.62-1.856c-5.775-0.802-11.082-1.747-15.917-2.839
		c-4.838-1.093-8.818-2.369-11.938-3.822c-3.124-1.458-4.682-3.059-4.682-4.806s1.13-3.13,3.394-4.15
		c2.26-1.017,4.799-1.818,7.607-2.402c3.12-0.58,6.788-1.017,11.001-1.311c2.809,0,5.618,0.256,8.427,0.765
		c2.809,0.512,5.618,0.765,8.427,0.765c14.98,1.894,30.232,3.133,45.761,3.713c15.526,0.584,31.015-0.144,46.463-2.185
		c3.277-0.437,7.176-1.054,11.704-1.856c4.524-0.798,8.895-1.966,13.108-3.494c4.213-1.529,7.801-3.495,10.768-5.897
		c2.962-2.402,4.601-5.352,4.916-8.846c0-3.201-1.17-6.15-3.511-8.846c-2.341-2.693-5.23-5.024-8.661-6.99
		c-3.435-1.966-7.063-3.604-10.885-4.914c-3.825-1.311-7.22-2.256-10.182-2.84c-3.745-0.873-8.192-1.747-13.342-2.62
		c-5.149-0.874-10.573-1.673-16.268-2.403c-5.698-0.727-11.55-1.419-17.555-2.074c-6.009-0.655-11.667-1.127-16.971-1.42v10.921
		c0,2.768-0.157,6.153-0.468,10.156c-0.314,4.007-0.937,7.9-1.873,11.686c-0.937,3.788-2.264,7.026-3.979,9.72
		c-1.719,2.695-3.902,4.04-6.554,4.04c-0.936,0-1.638-0.437-2.106-1.311c-0.468-0.873-0.819-1.928-1.053-3.167
		c-0.234-1.235-0.392-2.546-0.468-3.932c-0.081-1.382-0.197-2.583-0.351-3.604c-1.251-8.88-2.264-18.02-3.043-27.411
		c-0.783-9.393-0.549-18.965,0.702-28.723c0.154-1.891,0.545-4.003,1.17-6.334c0.622-2.327,1.324-4.549,2.106-6.661
		c0.779-2.109,1.558-3.856,2.341-5.242c0.779-1.383,1.558-2.075,2.341-2.075c1.09,0,2.341,0.546,3.745,1.638
		c1.405,1.093,2.692,2.621,3.862,4.587s2.184,4.226,3.043,6.771c0.856,2.549,1.288,5.351,1.288,8.409
		c0,2.331-0.117,4.587-0.351,6.771c-0.234,2.185-0.352,4.443-0.352,6.771c0.622,0.146,1.558,0.218,2.809,0.218
		c1.247,0,4.133,0,8.661,0c7.022,0,14.004-0.218,20.95-0.655c6.942-0.437,13.847-1.235,20.715-2.402
		c3.745-0.58,8.229-1.491,13.459-2.73c5.226-1.235,10.299-2.873,15.215-4.914c4.916-2.037,9.088-4.478,12.523-7.317
		c3.431-2.839,5.149-6.225,5.149-10.156c0-2.475-1.053-4.768-3.16-6.88c-2.106-2.109-4.681-3.966-7.724-5.569
		c-3.043-1.601-6.284-2.983-9.714-4.15c-3.434-1.164-6.4-2.037-8.895-2.621c-5.464-1.454-11.199-2.365-17.205-2.73
		c-6.009-0.361-11.744-0.546-17.204-0.546c-18.415,0-36.867,1.676-55.358,5.023c-18.492,3.352-36.633,9.174-54.422,17.474
		c-1.719,1.021-3.551,1.42-5.5,1.201c-1.953-0.218-2.926-1.71-2.926-4.478c0-3.932,1.441-7.46,4.331-10.593
		c2.886-3.13,6.437-5.897,10.65-8.3c4.213-2.403,8.737-4.402,13.576-6.007c4.835-1.601,9.206-2.84,13.108-3.713
		c11.857-2.911,24.303-5.133,37.334-6.662c13.028-1.528,27.657-2.293,43.889-2.293c4.367,0.146,9.323,0.474,14.864,0.982
		c5.537,0.512,11.195,1.349,16.97,2.512c5.771,1.167,11.43,2.73,16.971,4.696c5.537,1.966,10.453,4.443,14.747,7.426
		c4.29,2.986,7.724,6.553,10.299,10.703c2.575,4.149,3.862,8.992,3.862,14.524c0,4.226-1.17,8.19-3.511,11.904
		c-2.34,3.713-5.383,7.099-9.128,10.156c-3.746,3.058-7.882,5.716-12.406,7.972c-4.528,2.26-8.975,4.041-13.342,5.352
		c4.367,1.021,8.661,2.331,12.874,3.932c4.213,1.604,7.958,3.679,11.235,6.225c3.277,2.55,5.888,5.607,7.841,9.174
		c1.95,3.569,2.926,7.754,2.926,12.559c0,6.263-1.795,11.614-5.383,16.054c-3.592,4.444-8.076,8.119-13.459,11.03
		s-11.199,5.205-17.438,6.881c-6.243,1.672-12.018,2.873-17.321,3.604c-13.733,2.185-27.818,3.201-42.25,3.058
		c-14.436-0.146-29.065-1.021-43.889-2.621H72.792z"/>
	<path fill="#FFFFFF" d="M250.921,183.8c2.184,0.437,4.097,1.386,5.735,2.839c1.638,1.458,3.002,3.059,4.096,4.806
		c1.247-1.311,2.809-2.037,4.682-2.185c1.872-0.143,3.665,0.109,5.384,0.765c1.715,0.655,3.119,1.676,4.213,3.058
		c1.09,1.386,1.481,3.024,1.171,4.915c-0.626,2.621-1.211,5.897-1.756,9.828c-0.549,3.932-0.899,7.72-1.054,11.358
		c-0.157,3.642-0.04,6.771,0.352,9.392c0.388,2.621,1.207,3.932,2.458,3.932c0.936,0,2.066-1.126,3.394-3.386
		c1.324-2.256,2.651-4.914,3.979-7.972c1.324-3.059,2.534-6.116,3.628-9.174c1.09-3.058,1.792-5.386,2.106-6.989
		c0.469-1.454,1.248-2.437,2.341-2.949c1.09-0.508,2.144-0.655,3.16-0.437c1.014,0.219,1.873,0.765,2.575,1.639
		c0.702,0.873,0.819,1.966,0.351,3.275c-0.314,0.874-0.819,2.513-1.521,4.915s-1.602,5.061-2.691,7.972
		c-1.094,2.915-2.381,5.936-3.862,9.064c-1.485,3.133-3.2,5.897-5.149,8.3c-1.953,2.403-4.137,4.26-6.555,5.57
		c-2.421,1.311-5.032,1.601-7.841,0.873c-4.528-1.163-7.805-3.713-9.831-7.645c-1.251,3.495-2.967,6.662-5.149,9.501
		c-2.188,2.84-4.996,4.915-8.427,6.226c-3.277,1.017-6.166,1.235-8.661,0.655c-4.528-1.167-8.116-3.788-10.767-7.863
		c-2.655-4.075-4.448-8.809-5.384-14.197c-0.937-5.386-1.013-10.992-0.234-16.818c0.783-5.822,2.377-11.064,4.799-15.726
		c2.417-4.659,5.654-8.334,9.714-11.03C240.23,183.62,245.146,182.783,250.921,183.8z M257.007,205.86
		c-0.314-2.474-0.899-4.876-1.756-7.207c-0.859-2.328-2.146-3.639-3.862-3.932c-2.498-0.437-4.721,0.402-6.671,2.512
		c-1.953,2.112-3.551,4.914-4.798,8.409c-1.251,3.494-2.147,7.316-2.692,11.467c-0.548,4.15-0.702,8.081-0.468,11.795
		c0.234,3.713,0.856,6.88,1.873,9.501c1.013,2.621,2.534,4.078,4.564,4.368c2.026,0.294,3.939-0.727,5.735-3.058
		c1.792-2.328,3.354-5.313,4.682-8.955c1.323-3.639,2.34-7.679,3.043-12.122C257.358,214.198,257.475,209.939,257.007,205.86z"/>
	<path fill="#FFFFFF" d="M291.415,221.15c-0.314,1.311-1.134,2.478-2.458,3.494c-1.323,1.021-2.611,1.639-3.861,1.856
		c-1.248,0.219-2.341-0.181-3.277-1.201c-0.937-1.017-1.171-2.911-0.702-5.679c0.314-2.765,1.639-6.149,3.979-10.156
		c2.34-4.003,5.267-7.973,8.777-11.904c3.511-3.931,7.45-7.46,11.82-10.593c4.367-3.13,8.738-5.205,13.108-6.225
		c3.745-0.728,6.905-0.689,9.48,0.108c2.574,0.803,4.601,2.15,6.086,4.041c1.48,1.895,2.457,4.116,2.926,6.662
		c0.468,2.549,0.468,5.208,0,7.972c-0.469,2.621-1.639,5.427-3.512,8.409c-1.872,2.986-4.02,5.897-6.437,8.737
		c-2.421,2.839-4.996,5.498-7.725,7.972c-2.732,2.478-5.189,4.443-7.373,5.897c1.715,0.73,3.354,1.529,4.915,2.402
		c1.559,0.874,3.043,1.748,4.447,2.621c2.81-0.727,5.618-1.092,8.427-1.092c1.404,0,2.494,0.327,3.277,0.982
		c0.779,0.655,1.17,1.42,1.17,2.294c0,0.873-0.314,1.638-0.936,2.293c-0.626,0.655-1.563,0.983-2.81,0.983
		c-0.625,0-1.17,0.037-1.638,0.109c-0.469,0.074-0.937,0.108-1.405,0.108c3.431,3.932,5.461,8.263,6.086,12.996
		c0.622,4.73,0.271,9.393-1.053,13.979c-1.328,4.587-3.512,8.918-6.555,12.996c-3.043,4.075-6.518,7.498-10.416,10.266
		c-3.902,2.765-8.115,4.658-12.64,5.679c-4.528,1.018-8.976,0.799-13.343-0.655c-4.213-1.457-6.631-4.553-7.256-9.282
		c-0.622-4.733,0.157-9.976,2.341-15.727c2.187-5.754,5.537-11.504,10.065-17.255c4.523-5.754,9.75-10.375,15.683-13.869
		c-2.03-1.891-4.996-3.201-8.895-3.932c-2.498-0.29-4.214-0.908-5.15-1.856c-0.936-0.945-1.367-2.038-1.287-3.276
		c0.077-1.235,0.585-2.584,1.521-4.041c0.937-1.454,2.106-2.911,3.511-4.368c1.405-1.454,3.472-3.894,6.203-7.317
		c2.729-3.419,5.344-6.914,7.842-10.483c2.494-3.566,4.484-6.806,5.969-9.72c1.481-2.911,1.599-4.587,0.352-5.023
		c-1.251-0.58-3.357,0.218-6.32,2.402c-2.966,2.184-6.05,4.952-9.246,8.3c-3.2,3.352-6.126,6.88-8.777,10.593
		C293.676,215.362,292.037,218.529,291.415,221.15z M295.16,287.331c2.652,0,5.384-1.458,8.192-4.369
		c2.81-2.914,5.227-6.443,7.257-10.593c2.026-4.15,3.471-8.594,4.33-13.323c0.856-4.733,0.662-8.993-0.585-12.777
		c-4.682,3.058-8.701,6.914-12.055,11.576c-3.357,4.658-5.933,9.173-7.725,13.541c-1.796,4.369-2.691,8.116-2.691,11.249
		C291.884,285.764,292.974,287.331,295.16,287.331z"/>
	<path fill="#FFFFFF" d="M375.68,183.8c2.183,0.437,4.096,1.386,5.734,2.839c1.639,1.458,3.003,3.059,4.097,4.806
		c1.247-1.311,2.809-2.037,4.681-2.185c1.873-0.143,3.665,0.109,5.384,0.765c1.716,0.655,3.12,1.676,4.214,3.058
		c1.09,1.386,1.481,3.024,1.17,4.915c-0.625,2.621-1.21,5.897-1.755,9.828c-0.549,3.932-0.9,7.72-1.054,11.358
		c-0.157,3.642-0.04,6.771,0.351,9.392c0.388,2.621,1.207,3.932,2.458,3.932c0.937,0,2.066-1.126,3.395-3.386
		c1.324-2.256,2.651-4.914,3.979-7.972c1.324-3.059,2.535-6.116,3.629-9.174c1.09-3.058,1.792-5.386,2.106-6.989
		c0.468-1.454,1.247-2.437,2.341-2.949c1.09-0.508,2.144-0.655,3.16-0.437c1.013,0.219,1.872,0.765,2.574,1.639
		c0.702,0.873,0.819,1.966,0.352,3.275c-0.314,0.874-0.819,2.513-1.521,4.915s-1.603,5.061-2.692,7.972
		c-1.093,2.915-2.381,5.936-3.862,9.064c-1.484,3.133-3.2,5.897-5.149,8.3c-1.953,2.403-4.137,4.26-6.554,5.57
		c-2.421,1.311-5.032,1.601-7.842,0.873c-4.527-1.163-7.805-3.713-9.831-7.645c-1.251,3.495-2.966,6.662-5.149,9.501
		c-2.188,2.84-4.996,4.915-8.427,6.226c-3.277,1.017-6.166,1.235-8.66,0.655c-4.528-1.167-8.116-3.788-10.768-7.863
		c-2.655-4.075-4.447-8.809-5.384-14.197c-0.937-5.386-1.014-10.992-0.234-16.818c0.783-5.822,2.378-11.064,4.799-15.726
		c2.417-4.659,5.654-8.334,9.714-11.03C364.988,183.62,369.904,182.783,375.68,183.8z M381.766,205.86
		c-0.315-2.474-0.9-4.876-1.756-7.207c-0.859-2.328-2.147-3.639-3.862-3.932c-2.498-0.437-4.722,0.402-6.671,2.512
		c-1.953,2.112-3.552,4.914-4.799,8.409c-1.251,3.494-2.146,7.316-2.691,11.467c-0.549,4.15-0.702,8.081-0.469,11.795
		c0.234,3.713,0.856,6.88,1.873,9.501c1.013,2.621,2.534,4.078,4.564,4.368c2.026,0.294,3.938-0.727,5.734-3.058
		c1.792-2.328,3.354-5.313,4.682-8.955c1.324-3.639,2.341-7.679,3.043-12.122C382.116,214.198,382.233,209.939,381.766,205.86z"/>
	<path fill="#FFFFFF" d="M421.323,207.826c-0.314,1.168-0.977,2.004-1.989,2.513c-1.017,0.512-2.07,0.654-3.16,0.437
		c-1.094-0.219-1.953-0.728-2.574-1.529c-0.622-0.799-0.622-1.856,0-3.167l1.404-3.713c-1.404-1.311-2.184-2.84-2.341-4.587
		c-0.153-1.747,0.157-3.386,0.937-4.914c0.778-1.529,1.909-2.84,3.394-3.932c1.481-1.092,3.16-1.639,5.033-1.639
		c3.276,0,5.068,1.13,5.383,3.386c0.312,2.26-0.157,4.771-1.404,7.535c0.937,0.438,2.458,0.513,4.564,0.219
		c2.106-0.29,4.097-0.471,5.969-0.546c1.873-0.071,3.431,0.256,4.682,0.982c1.247,0.73,1.559,2.403,0.937,5.024
		c-0.625,2.62-1.287,5.754-1.989,9.392c-0.702,3.642-1.211,7.099-1.521,10.375c-0.315,3.276-0.315,6.081,0,8.409
		c0.311,2.331,1.17,3.494,2.574,3.494c0.937,0,2.144-1.272,3.628-3.822c1.481-2.546,3.003-5.494,4.564-8.846
		c1.559-3.348,2.963-6.733,4.214-10.156c1.247-3.42,2.026-6.007,2.341-7.754c0.311-1.454,0.973-2.475,1.989-3.058
		c1.014-0.58,2.066-0.837,3.16-0.765c1.09,0.075,1.989,0.512,2.691,1.311c0.702,0.802,0.974,1.932,0.819,3.385
		c-0.157,0.73-0.548,2.294-1.17,4.696c-0.626,2.402-1.485,5.099-2.575,8.082c-1.094,2.985-2.421,6.115-3.979,9.392
		c-1.562,3.276-3.434,6.3-5.617,9.064c-2.188,2.768-4.604,4.989-7.257,6.661c-2.655,1.673-5.617,2.438-8.895,2.294
		c-3.745-0.146-6.477-1.713-8.192-4.696c-1.719-2.982-2.809-6.553-3.277-10.702c-0.468-4.15-0.351-8.553,0.352-13.215
		c0.702-4.658,1.675-8.736,2.926-12.23c-0.782,0.146-1.562,0.218-2.341,0.218c-0.782,0-1.562,0-2.341,0
		C421.792,206.154,421.478,206.953,421.323,207.826z"/>
</g>
</svg>
