<?xml version="1.0" encoding="utf-8"?>
<!-- Generator: Adobe Illustrator 15.1.0, SVG Export Plug-In . SVG Version: 6.00 Build 0)  -->
<!DOCTYPE svg PUBLIC "-//W3C//DTD SVG 1.1//EN" "http://www.w3.org/Graphics/SVG/1.1/DTD/svg11.dtd">
<svg version="1.1" id="Layer_1" xmlns="http://www.w3.org/2000/svg" xmlns:xlink="http://www.w3.org/1999/xlink" x="0px" y="0px"
	 width="51.826px" height="49.308px" viewBox="0 0 51.826 49.308" enable-background="new 0 0 51.826 49.308" xml:space="preserve">
<polygon fill="#FFFFFF" stroke="#FF0000" stroke-miterlimit="10" points="42.333,44.438 16.989,48.767 0.569,28.981 9.493,4.869 
	34.837,0.542 51.257,20.326 "/>
<polygon fill="#FF0000" stroke="#FF0000" stroke-miterlimit="10" points="40.492,41.837 17.892,45.695 3.309,28.397 11.325,7.24 
	33.926,3.38 48.509,20.678 "/>
<g>
	<path fill="#FFFFFF" d="M9.651,15.519h6.17v2.848h-2.47v2.698h2.312v2.707h-2.312V26.9h2.716v2.848H9.651V15.519z"/>
	<path fill="#FFFFFF" d="M20.576,18.085l-0.141,1.534c0.516-1.098,1.263-1.68,2.241-1.745v4.104c-0.65,0-1.128,0.088-1.433,0.264
		s-0.492,0.42-0.563,0.734s-0.105,1.036-0.105,2.167v4.605h-3.551V18.085H20.576z"/>
	<path fill="#FFFFFF" d="M27.019,18.085l-0.141,1.534c0.515-1.098,1.262-1.68,2.24-1.745v4.104c-0.65,0-1.128,0.088-1.432,0.264
		c-0.306,0.176-0.492,0.42-0.563,0.734s-0.105,1.036-0.105,2.167v4.605h-3.551V18.085H27.019z"/>
	<path fill="#FFFFFF" d="M37.942,22.181v2.856c0,1.049-0.053,1.818-0.158,2.307s-0.331,0.946-0.677,1.371s-0.79,0.738-1.331,0.94
		c-0.543,0.202-1.165,0.303-1.868,0.303c-0.785,0-1.45-0.086-1.995-0.259s-0.969-0.434-1.27-0.782
		c-0.303-0.349-0.518-0.771-0.646-1.266s-0.193-1.238-0.193-2.228v-2.988c0-1.084,0.117-1.931,0.352-2.54s0.656-1.099,1.266-1.468
		s1.389-0.554,2.338-0.554c0.797,0,1.48,0.119,2.053,0.356c0.57,0.237,1.012,0.546,1.322,0.927s0.523,0.773,0.637,1.178
		C37.886,20.739,37.942,21.354,37.942,22.181z M34.392,21.302c0-0.598-0.032-0.974-0.097-1.129s-0.202-0.233-0.413-0.233
		s-0.352,0.078-0.422,0.233s-0.105,0.532-0.105,1.129v5.265c0,0.551,0.035,0.91,0.105,1.077s0.208,0.25,0.413,0.25
		c0.211,0,0.35-0.076,0.417-0.229s0.102-0.48,0.102-0.984V21.302z"/>
	<path fill="#FFFFFF" d="M42.663,18.085l-0.141,1.534c0.516-1.098,1.263-1.68,2.241-1.745v4.104c-0.65,0-1.128,0.088-1.433,0.264
		s-0.492,0.42-0.563,0.734s-0.105,1.036-0.105,2.167v4.605h-3.551V18.085H42.663z"/>
</g>
</svg>
